<svg width="50" height="50" viewBox="0 0 50 50" fill="none" xmlns="http://www.w3.org/2000/svg">
<path d="M25.0013 0C11.2144 0.00249988 0 11.2169 0 25.0013C0.00249988 38.7856 11.2169 50 24.9988 50C38.7856 50 50 38.7856 50 25.0013C50 11.2169 38.7856 0.00249988 25.0013 0ZM24.9988 45.0002C13.9743 45.0002 5.00225 36.0282 4.99975 25.0013C4.99975 13.9743 13.9718 5.00225 25.0013 4.99975C36.0282 5.00225 45.0002 13.9743 45.0002 25.0013C45.0002 36.0282 36.0282 45.0002 24.9988 45.0002Z" fill="#E2C081"/>
<path d="M25.6111 15.5992L15.5991 25.6112H23.1112V35.5957H28.111V25.6112H35.6206L25.6111 15.5992Z" fill="#E2C081"/>
</svg>
