<svg width="93" height="37" viewBox="0 0 93 37" fill="none" xmlns="http://www.w3.org/2000/svg">
<rect x="1" y="3.77612" width="87.3072" height="32.0075" stroke="#E2C286" stroke-width="2"/>
<rect x="3.74774" y="1" width="87.3072" height="32.0075" stroke="#E2C286" stroke-width="2"/>
<path d="M13.789 16.86V25.96C13.789 26.3 13.629 26.42 13.189 26.42C12.729 26.42 11.089 26.42 9.66904 26.36C10.049 27.02 10.509 28.1 10.649 28.8C12.569 28.8 14.009 28.76 14.989 28.4C15.989 28.04 16.329 27.38 16.329 26.02V16.86H13.789ZM6.94904 11.42V13.78H20.929V11.42H6.94904ZM20.029 11.42V12C19.029 13.52 16.669 15.92 14.589 17.24C15.069 17.62 15.849 18.42 16.229 18.94C18.689 17.4 21.329 14.86 23.129 12.66L21.249 11.26L20.669 11.42H20.029ZM27.789 15.16V16.92H33.329V15.16H27.789ZM27.789 18.44V20.14H33.329V18.44H27.789ZM27.789 21.78V23.56H33.329V21.78H27.789ZM36.449 19.52V21.54H43.989V19.52H36.449ZM28.769 11.88V13.68H31.929V11.88H28.769ZM34.949 11.04V13H42.369V11.04H34.949ZM34.949 23.34V25.42H44.369V23.34H34.949ZM38.689 17.72V28.74H40.969V17.72H38.689ZM29.949 16.08V22.44H31.549V16.08H29.949ZM41.729 11.04V11.32C41.649 14.22 41.529 15.3 41.309 15.56C41.169 15.74 41.009 15.78 40.749 15.78C40.489 15.78 39.969 15.76 39.329 15.7C39.629 16.22 39.829 17.02 39.869 17.62C40.669 17.66 41.449 17.64 41.889 17.58C42.409 17.5 42.789 17.34 43.109 16.92C43.549 16.4 43.729 15.02 43.829 11.8C43.849 11.54 43.869 11.04 43.869 11.04H41.729ZM36.049 17.86C35.769 19.46 35.229 21.1 34.449 22.16C34.929 22.38 35.809 22.82 36.209 23.1C36.989 21.92 37.649 20.08 38.009 18.24L36.049 17.86ZM28.289 10C27.749 12.38 26.689 14.72 25.329 16.2C25.809 16.52 26.669 17.24 27.029 17.62C28.469 15.92 29.709 13.22 30.429 10.46L28.289 10ZM26.909 15.16V20.46C26.909 22.72 26.789 25.7 25.429 27.78C25.889 27.98 26.749 28.52 27.109 28.84C28.569 26.58 28.829 23.02 28.829 20.46V15.16H26.909ZM32.689 15.16V26.46C32.689 26.7 32.589 26.78 32.349 26.78C32.109 26.8 31.309 26.8 30.529 26.76C30.809 27.3 31.129 28.22 31.209 28.78C32.429 28.78 33.249 28.74 33.869 28.4C34.469 28.04 34.649 27.44 34.649 26.5V15.16H32.689ZM37.349 11.7C37.149 13.86 36.729 15.56 34.329 16.54C34.809 16.9 35.349 17.68 35.589 18.18C38.569 16.86 39.249 14.62 39.489 11.7H37.349ZM31.369 11.88V12.24C31.129 13.18 30.629 14.66 30.189 15.58C30.609 15.8 31.269 16.2 31.649 16.48C32.269 15.48 33.049 13.9 33.489 12.64L32.129 11.78L31.829 11.88H31.369ZM53.789 13.8V15.96H64.069V13.8H53.789ZM54.209 17.86V20H63.629V17.86H54.209ZM53.149 22.02V24.22H64.389V22.02H53.149ZM57.629 14.56V28.8H59.989V14.56H57.629ZM61.209 9.96C60.909 11.04 60.309 12.54 59.829 13.5L61.689 14.12C62.249 13.24 62.909 11.92 63.549 10.66L61.209 9.96ZM54.409 10.82C54.989 11.88 55.529 13.3 55.709 14.22L57.769 13.42C57.549 12.5 56.969 11.14 56.349 10.1L54.409 10.82ZM46.509 16.16V17.96H52.689V16.16H46.509ZM46.569 10.64V12.46H52.649V10.64H46.569ZM46.509 18.88V20.7H52.689V18.88H46.509ZM45.529 13.34V15.24H53.409V13.34H45.529ZM47.609 21.66V23.56H50.609V25.84H47.609V27.74H52.669V21.66H47.609ZM46.449 21.66V28.54H48.469V21.66H46.449ZM74.189 21.54V23.24H81.109V21.54H74.189ZM71.729 11.38V13.1H83.669V11.38H71.729ZM72.269 13.9V15.52H83.109V13.9H72.269ZM71.109 16.36V18.08H84.289V16.36H71.109ZM74.209 24.14V25.8H81.149V24.14H74.209ZM72.449 18.86V28.82H74.669V20.6H81.009V18.86H72.449ZM80.669 18.86V26.46C80.669 26.7 80.569 26.78 80.309 26.78C80.029 26.8 79.069 26.8 78.269 26.76C78.529 27.32 78.829 28.2 78.909 28.8C80.309 28.8 81.289 28.78 82.009 28.44C82.729 28.12 82.929 27.54 82.929 26.5V18.86H80.669ZM76.429 10.02V16.92H78.809V10.02H76.429ZM67.829 10.02V28.8H69.989V10.02H67.829ZM66.109 13.98C65.989 15.6 65.709 17.84 65.269 19.22L67.029 19.82C67.429 18.26 67.749 15.86 67.789 14.18L66.109 13.98ZM69.669 13.36C70.069 14.32 70.549 15.58 70.749 16.36L72.309 15.62C72.089 14.88 71.569 13.66 71.149 12.74L69.669 13.36Z" fill="#E2C286"/>
</svg>
