<svg width="99" height="33" viewBox="0 0 99 33" fill="none" xmlns="http://www.w3.org/2000/svg">
<rect x="1" y="3.43311" width="93.3845" height="27.8077" stroke="#2C3236" stroke-width="2"/>
<rect x="3.93475" y="1" width="93.3845" height="27.8077" stroke="#2C3236" stroke-width="2"/>
<path d="M16.1593 13.4955V22.5955C16.1593 22.9355 15.9993 23.0555 15.5593 23.0555C15.0993 23.0555 13.4593 23.0555 12.0393 22.9955C12.4193 23.6555 12.8793 24.7355 13.0193 25.4355C14.9393 25.4355 16.3793 25.3955 17.3593 25.0355C18.3593 24.6755 18.6993 24.0155 18.6993 22.6555V13.4955H16.1593ZM9.31927 8.0555V10.4155H23.2993V8.0555H9.31927ZM22.3993 8.0555V8.6355C21.3993 10.1555 19.0393 12.5555 16.9593 13.8755C17.4393 14.2555 18.2193 15.0555 18.5993 15.5755C21.0593 14.0355 23.6993 11.4955 25.4993 9.2955L23.6193 7.8955L23.0393 8.0555H22.3993ZM30.1593 11.7955V13.5555H35.6993V11.7955H30.1593ZM30.1593 15.0755V16.7755H35.6993V15.0755H30.1593ZM30.1593 18.4155V20.1955H35.6993V18.4155H30.1593ZM38.8193 16.1555V18.1755H46.3593V16.1555H38.8193ZM31.1393 8.5155V10.3155H34.2993V8.5155H31.1393ZM37.3193 7.6755V9.6355H44.7393V7.6755H37.3193ZM37.3193 19.9755V22.0555H46.7393V19.9755H37.3193ZM41.0593 14.3555V25.3755H43.3393V14.3555H41.0593ZM32.3193 12.7155V19.0755H33.9193V12.7155H32.3193ZM44.0993 7.6755V7.9555C44.0193 10.8555 43.8993 11.9355 43.6793 12.1955C43.5393 12.3755 43.3793 12.4155 43.1193 12.4155C42.8593 12.4155 42.3393 12.3955 41.6993 12.3355C41.9993 12.8555 42.1993 13.6555 42.2393 14.2555C43.0393 14.2955 43.8193 14.2755 44.2593 14.2155C44.7793 14.1355 45.1593 13.9755 45.4793 13.5555C45.9193 13.0355 46.0993 11.6555 46.1993 8.4355C46.2193 8.1755 46.2393 7.6755 46.2393 7.6755H44.0993ZM38.4193 14.4955C38.1393 16.0955 37.5993 17.7355 36.8193 18.7955C37.2993 19.0155 38.1793 19.4555 38.5793 19.7355C39.3593 18.5555 40.0193 16.7155 40.3793 14.8755L38.4193 14.4955ZM30.6593 6.6355C30.1193 9.0155 29.0593 11.3555 27.6993 12.8355C28.1793 13.1555 29.0393 13.8755 29.3993 14.2555C30.8393 12.5555 32.0793 9.8555 32.7993 7.0955L30.6593 6.6355ZM29.2793 11.7955V17.0955C29.2793 19.3555 29.1593 22.3355 27.7993 24.4155C28.2593 24.6155 29.1193 25.1555 29.4793 25.4755C30.9393 23.2155 31.1993 19.6555 31.1993 17.0955V11.7955H29.2793ZM35.0593 11.7955V23.0955C35.0593 23.3355 34.9593 23.4155 34.7193 23.4155C34.4793 23.4355 33.6793 23.4355 32.8993 23.3955C33.1793 23.9355 33.4993 24.8555 33.5793 25.4155C34.7993 25.4155 35.6193 25.3755 36.2393 25.0355C36.8393 24.6755 37.0193 24.0755 37.0193 23.1355V11.7955H35.0593ZM39.7193 8.3355C39.5193 10.4955 39.0993 12.1955 36.6993 13.1755C37.1793 13.5355 37.7193 14.3155 37.9593 14.8155C40.9393 13.4955 41.6193 11.2555 41.8593 8.3355H39.7193ZM33.7393 8.5155V8.8755C33.4993 9.8155 32.9993 11.2955 32.5593 12.2155C32.9793 12.4355 33.6393 12.8355 34.0193 13.1155C34.6393 12.1155 35.4193 10.5355 35.8593 9.2755L34.4993 8.4155L34.1993 8.5155H33.7393ZM56.1593 10.4355V12.5955H66.4393V10.4355H56.1593ZM56.5793 14.4955V16.6355H65.9993V14.4955H56.5793ZM55.5193 18.6555V20.8555H66.7593V18.6555H55.5193ZM59.9993 11.1955V25.4355H62.3593V11.1955H59.9993ZM63.5793 6.5955C63.2793 7.6755 62.6793 9.1755 62.1993 10.1355L64.0593 10.7555C64.6193 9.8755 65.2793 8.5555 65.9193 7.2955L63.5793 6.5955ZM56.7793 7.4555C57.3593 8.5155 57.8993 9.9355 58.0793 10.8555L60.1393 10.0555C59.9193 9.1355 59.3393 7.7755 58.7193 6.7355L56.7793 7.4555ZM48.8793 12.7955V14.5955H55.0593V12.7955H48.8793ZM48.9393 7.2755V9.0955H55.0193V7.2755H48.9393ZM48.8793 15.5155V17.3355H55.0593V15.5155H48.8793ZM47.8993 9.9755V11.8755H55.7793V9.9755H47.8993ZM49.9793 18.2955V20.1955H52.9793V22.4755H49.9793V24.3755H55.0393V18.2955H49.9793ZM48.8193 18.2955V25.1755H50.8393V18.2955H48.8193ZM76.5593 18.1755V19.8755H83.4793V18.1755H76.5593ZM74.0993 8.0155V9.7355H86.0393V8.0155H74.0993ZM74.6393 10.5355V12.1555H85.4793V10.5355H74.6393ZM73.4793 12.9955V14.7155H86.6593V12.9955H73.4793ZM76.5793 20.7755V22.4355H83.5193V20.7755H76.5793ZM74.8193 15.4955V25.4555H77.0393V17.2355H83.3793V15.4955H74.8193ZM83.0393 15.4955V23.0955C83.0393 23.3355 82.9393 23.4155 82.6793 23.4155C82.3993 23.4355 81.4393 23.4355 80.6393 23.3955C80.8993 23.9555 81.1993 24.8355 81.2793 25.4355C82.6793 25.4355 83.6593 25.4155 84.3793 25.0755C85.0993 24.7555 85.2993 24.1755 85.2993 23.1355V15.4955H83.0393ZM78.7993 6.6555V13.5555H81.1793V6.6555H78.7993ZM70.1993 6.6555V25.4355H72.3593V6.6555H70.1993ZM68.4793 10.6155C68.3593 12.2355 68.0793 14.4755 67.6393 15.8555L69.3993 16.4555C69.7993 14.8955 70.1193 12.4955 70.1593 10.8155L68.4793 10.6155ZM72.0393 9.9955C72.4393 10.9555 72.9193 12.2155 73.1193 12.9955L74.6793 12.2555C74.4593 11.5155 73.9393 10.2955 73.5193 9.3755L72.0393 9.9955Z" fill="#2C3236"/>
</svg>
