<svg width="83" height="33" viewBox="0 0 83 33" fill="none" xmlns="http://www.w3.org/2000/svg">
<rect x="1" y="3.4776" width="78.5224" height="28.3507" stroke="#E2C286" stroke-width="2"/>
<rect x="3.47754" y="1" width="78.5224" height="28.3507" stroke="#E2C286" stroke-width="2"/>
<path d="M28.6 7.67637V9.13237H33.112V7.67637H28.6ZM28.408 12.2204V13.6764H33.272V12.2204H28.408ZM28.408 14.4284V15.8844H33.272V14.4284H28.408ZM27.496 9.86837V11.4204H34.024V9.86837H27.496ZM34.248 10.2684V12.0604H42.248V10.2684H34.248ZM33.864 19.9164V21.7244H42.504V19.9164H33.864ZM34.584 14.9564V16.7324H41.992V14.9564H34.584ZM29.272 16.6524V18.0764H31.672V19.9164H29.272V21.3404H33.448V16.6524H29.272ZM28.28 16.6524V22.0604H30.008V16.6524H28.28ZM37.24 7.26037V11.0684H39.16V7.26037H37.24ZM37.24 10.9564V20.8284H39.16V10.9564H37.24ZM45.016 8.14037V22.3004H46.904V10.0284H56.216V8.14037H45.016ZM55.192 8.14037V20.1404C55.192 20.3324 55.144 20.4124 54.952 20.4124C54.792 20.4124 54.28 20.4124 53.816 20.3804C54.072 20.8764 54.328 21.7404 54.376 22.2524C55.304 22.2524 55.96 22.2044 56.456 21.8844C56.968 21.5484 57.096 21.0204 57.096 20.1724V8.14037H55.192ZM43.48 13.9164V15.7884H58.52V13.9164H43.48ZM48.408 8.76437V22.0284H50.184V8.76437H48.408ZM51.752 8.76437V22.0284H53.56V8.76437H51.752Z" fill="#E2C081"/>
</svg>
